<mxfile host="app.diagrams.net" modified="2023-09-19T22:03:34.306Z" agent="Mozilla/5.0 (Macintosh; Intel Mac OS X 10_15_7) AppleWebKit/537.36 (KHTML, like Gecko) Chrome/116.0.0.0 Safari/537.36" etag="wWkrMYuFzquojzJyC5x5" version="21.7.5" type="github">
  <diagram name="Page-1" id="aaaa8250-4180-3840-79b5-4cada1eebb92">
    <mxGraphModel dx="2758" dy="2206" grid="1" gridSize="10" guides="1" tooltips="1" connect="1" arrows="1" fold="1" page="1" pageScale="1" pageWidth="850" pageHeight="1100" background="none" math="0" shadow="0">
      <root>
        <mxCell id="0" />
        <mxCell id="1" parent="0" />
        <mxCell id="_N34kFWI8jsp1OIjSfit-29" style="edgeStyle=orthogonalEdgeStyle;rounded=0;orthogonalLoop=1;jettySize=auto;html=1;exitX=1;exitY=0.5;exitDx=0;exitDy=0;exitPerimeter=0;entryX=0.369;entryY=-0.017;entryDx=0;entryDy=0;entryPerimeter=0;" edge="1" parent="1" source="_N34kFWI8jsp1OIjSfit-7" target="_N34kFWI8jsp1OIjSfit-8">
          <mxGeometry relative="1" as="geometry" />
        </mxCell>
        <mxCell id="_N34kFWI8jsp1OIjSfit-7" value="CallState" style="shape=cylinder3;whiteSpace=wrap;html=1;boundedLbl=1;backgroundOutline=1;size=15;" vertex="1" parent="1">
          <mxGeometry x="370" y="450" width="160" height="180" as="geometry" />
        </mxCell>
        <mxCell id="_N34kFWI8jsp1OIjSfit-31" style="edgeStyle=orthogonalEdgeStyle;rounded=0;orthogonalLoop=1;jettySize=auto;html=1;exitX=0;exitY=0.5;exitDx=0;exitDy=0;exitPerimeter=0;" edge="1" parent="1" source="_N34kFWI8jsp1OIjSfit-8">
          <mxGeometry relative="1" as="geometry">
            <mxPoint y="100" as="targetPoint" />
          </mxGeometry>
        </mxCell>
        <mxCell id="_N34kFWI8jsp1OIjSfit-8" value="CdrAccount" style="shape=cylinder3;whiteSpace=wrap;html=1;boundedLbl=1;backgroundOutline=1;size=15;" vertex="1" parent="1">
          <mxGeometry x="830" y="760" width="160" height="180" as="geometry" />
        </mxCell>
        <mxCell id="_N34kFWI8jsp1OIjSfit-16" style="edgeStyle=orthogonalEdgeStyle;rounded=0;orthogonalLoop=1;jettySize=auto;html=1;exitX=0.5;exitY=0;exitDx=0;exitDy=0;exitPerimeter=0;entryX=0.159;entryY=1.057;entryDx=0;entryDy=0;entryPerimeter=0;" edge="1" parent="1" source="_N34kFWI8jsp1OIjSfit-12" target="_N34kFWI8jsp1OIjSfit-14">
          <mxGeometry relative="1" as="geometry" />
        </mxCell>
        <mxCell id="_N34kFWI8jsp1OIjSfit-12" value="ConnectedCalls" style="shape=cylinder3;whiteSpace=wrap;html=1;boundedLbl=1;backgroundOutline=1;size=15;" vertex="1" parent="1">
          <mxGeometry x="510" y="140" width="160" height="180" as="geometry" />
        </mxCell>
        <mxCell id="_N34kFWI8jsp1OIjSfit-26" style="edgeStyle=orthogonalEdgeStyle;rounded=0;orthogonalLoop=1;jettySize=auto;html=1;exitX=0.5;exitY=0;exitDx=0;exitDy=0;entryX=0.708;entryY=1.014;entryDx=0;entryDy=0;entryPerimeter=0;" edge="1" parent="1" source="_N34kFWI8jsp1OIjSfit-14" target="_N34kFWI8jsp1OIjSfit-23">
          <mxGeometry relative="1" as="geometry" />
        </mxCell>
        <mxCell id="_N34kFWI8jsp1OIjSfit-14" value="Azure SignalR&amp;nbsp;" style="rounded=1;whiteSpace=wrap;html=1;" vertex="1" parent="1">
          <mxGeometry x="640" y="20" width="490" height="60" as="geometry" />
        </mxCell>
        <mxCell id="_N34kFWI8jsp1OIjSfit-18" style="edgeStyle=orthogonalEdgeStyle;rounded=0;orthogonalLoop=1;jettySize=auto;html=1;exitX=0.5;exitY=0;exitDx=0;exitDy=0;exitPerimeter=0;entryX=0.304;entryY=1.071;entryDx=0;entryDy=0;entryPerimeter=0;" edge="1" parent="1" source="_N34kFWI8jsp1OIjSfit-17" target="_N34kFWI8jsp1OIjSfit-14">
          <mxGeometry relative="1" as="geometry" />
        </mxCell>
        <mxCell id="_N34kFWI8jsp1OIjSfit-17" value="Queues" style="shape=cylinder3;whiteSpace=wrap;html=1;boundedLbl=1;backgroundOutline=1;size=15;" vertex="1" parent="1">
          <mxGeometry x="709" y="140" width="160" height="180" as="geometry" />
        </mxCell>
        <mxCell id="_N34kFWI8jsp1OIjSfit-20" style="edgeStyle=orthogonalEdgeStyle;rounded=0;orthogonalLoop=1;jettySize=auto;html=1;entryX=0.796;entryY=1.062;entryDx=0;entryDy=0;entryPerimeter=0;" edge="1" parent="1" source="_N34kFWI8jsp1OIjSfit-19" target="_N34kFWI8jsp1OIjSfit-14">
          <mxGeometry relative="1" as="geometry" />
        </mxCell>
        <mxCell id="_N34kFWI8jsp1OIjSfit-19" value="Agents" style="shape=cylinder3;whiteSpace=wrap;html=1;boundedLbl=1;backgroundOutline=1;size=15;" vertex="1" parent="1">
          <mxGeometry x="950" y="140" width="160" height="180" as="geometry" />
        </mxCell>
        <mxCell id="_N34kFWI8jsp1OIjSfit-22" value="Agent.heedify.io" style="rounded=0;whiteSpace=wrap;html=1;" vertex="1" parent="1">
          <mxGeometry x="650" y="-90" width="120" height="60" as="geometry" />
        </mxCell>
        <mxCell id="_N34kFWI8jsp1OIjSfit-23" value="RealTime.heedify.io" style="rounded=0;whiteSpace=wrap;html=1;" vertex="1" parent="1">
          <mxGeometry x="800" y="-90" width="120" height="60" as="geometry" />
        </mxCell>
        <mxCell id="_N34kFWI8jsp1OIjSfit-24" style="edgeStyle=orthogonalEdgeStyle;rounded=0;orthogonalLoop=1;jettySize=auto;html=1;entryX=0.304;entryY=1.071;entryDx=0;entryDy=0;entryPerimeter=0;" edge="1" parent="1">
          <mxGeometry relative="1" as="geometry">
            <mxPoint x="720" y="20" as="sourcePoint" />
            <mxPoint x="720" y="-30" as="targetPoint" />
          </mxGeometry>
        </mxCell>
        <mxCell id="_N34kFWI8jsp1OIjSfit-28" style="edgeStyle=orthogonalEdgeStyle;rounded=0;orthogonalLoop=1;jettySize=auto;html=1;exitX=0;exitY=0.5;exitDx=0;exitDy=0;exitPerimeter=0;" edge="1" parent="1" source="_N34kFWI8jsp1OIjSfit-27" target="_N34kFWI8jsp1OIjSfit-8">
          <mxGeometry relative="1" as="geometry" />
        </mxCell>
        <mxCell id="_N34kFWI8jsp1OIjSfit-27" value="Presence" style="shape=cylinder3;whiteSpace=wrap;html=1;boundedLbl=1;backgroundOutline=1;size=15;" vertex="1" parent="1">
          <mxGeometry x="1150" y="450" width="160" height="180" as="geometry" />
        </mxCell>
        <mxCell id="_N34kFWI8jsp1OIjSfit-33" style="edgeStyle=orthogonalEdgeStyle;rounded=0;orthogonalLoop=1;jettySize=auto;html=1;exitX=0.25;exitY=0;exitDx=0;exitDy=0;entryX=0.5;entryY=1;entryDx=0;entryDy=0;" edge="1" parent="1" source="_N34kFWI8jsp1OIjSfit-30" target="_N34kFWI8jsp1OIjSfit-32">
          <mxGeometry relative="1" as="geometry" />
        </mxCell>
        <mxCell id="_N34kFWI8jsp1OIjSfit-30" value="PowerBi" style="rounded=1;whiteSpace=wrap;html=1;" vertex="1" parent="1">
          <mxGeometry x="-40" y="30" width="490" height="60" as="geometry" />
        </mxCell>
        <mxCell id="_N34kFWI8jsp1OIjSfit-32" value="reports.heedify.io" style="rounded=0;whiteSpace=wrap;html=1;" vertex="1" parent="1">
          <mxGeometry x="80" y="-110" width="120" height="60" as="geometry" />
        </mxCell>
        <mxCell id="_N34kFWI8jsp1OIjSfit-35" value="recordings.heedify.io" style="rounded=0;whiteSpace=wrap;html=1;" vertex="1" parent="1">
          <mxGeometry x="1500" y="-110" width="120" height="60" as="geometry" />
        </mxCell>
        <mxCell id="_N34kFWI8jsp1OIjSfit-37" style="edgeStyle=orthogonalEdgeStyle;rounded=0;orthogonalLoop=1;jettySize=auto;html=1;exitX=0.5;exitY=0;exitDx=0;exitDy=0;exitPerimeter=0;" edge="1" parent="1" source="_N34kFWI8jsp1OIjSfit-36" target="_N34kFWI8jsp1OIjSfit-35">
          <mxGeometry relative="1" as="geometry" />
        </mxCell>
        <mxCell id="_N34kFWI8jsp1OIjSfit-36" value="RecordingsAudioFiles" style="shape=cylinder3;whiteSpace=wrap;html=1;boundedLbl=1;backgroundOutline=1;size=15;" vertex="1" parent="1">
          <mxGeometry x="1480" y="120" width="160" height="180" as="geometry" />
        </mxCell>
        <mxCell id="_N34kFWI8jsp1OIjSfit-38" value="AgentCalls&lt;br&gt;" style="shape=cylinder3;whiteSpace=wrap;html=1;boundedLbl=1;backgroundOutline=1;size=15;" vertex="1" parent="1">
          <mxGeometry x="40" y="300" width="160" height="180" as="geometry" />
        </mxCell>
        <mxCell id="_N34kFWI8jsp1OIjSfit-39" value="Flows&lt;br&gt;" style="shape=cylinder3;whiteSpace=wrap;html=1;boundedLbl=1;backgroundOutline=1;size=15;" vertex="1" parent="1">
          <mxGeometry x="310" y="140" width="160" height="180" as="geometry" />
        </mxCell>
      </root>
    </mxGraphModel>
  </diagram>
</mxfile>
